<?xml version="1.0"?>
<svg xmlns="http://www.w3.org/2000/svg" xmlns:xlink="http://www.w3.org/1999/xlink" xmlns:svgjs="http://svgjs.com/svgjs" version="1.1" width="512" height="512" x="0" y="0" viewBox="0 0 64 64" style="enable-background:new 0 0 512 512" xml:space="preserve" class=""><g transform="matrix(-0.9,0,0,0.9,60.8,3.1999999999999957)"><g xmlns="http://www.w3.org/2000/svg"><path d="m33 21.415-2 2v7.921c-1.368.956-2 3.709-2 4.665 0 1.654 1.346 3 3 3s3-1.346 3-3c0-.956-.632-3.708-2-4.665z" fill="#ffffff" data-original="#ffffff" style="" class=""/><path d="m29.086 11.328c.212-.212.493-.328.793-.328.618 0 1.121.503 1.121 1.121v4.464l2 2v-6.464c0-1.721-1.4-3.121-3.121-3.121-.834 0-1.618.324-2.207.914l-1.672 1.672 1.414 1.414z" fill="#ffffff" data-original="#ffffff" style="" class=""/><path d="m6.5 23h1.277.223v2h-.223c-.754 0-1.438.419-1.783 1.094-1.075 2.097-1.746 3.907-1.938 5.205l2.944.981v3.306c0 .646.251 1.252.708 1.708.456.456 1.062.707 1.707.707l3.585-.001v2l-2 .001v2.612l4-1.333v-7.693l1.707-1.707c.186-.188.293-.445.293-.708v-.172c0-.552-.449-1-1-1h-1v-3c0-1.103-.897-2-2-2v-2c2.206 0 4 1.794 4 4v1.171c1.164.413 2 1.525 2 2.829v.172c0 .801-.312 1.555-.879 2.121l-1.121 1.121v2.943c3.688-1.975 5.978-5.745 5.997-9.946l-11.412-11.411h-5.085c-1.93 0-3.5 1.57-3.5 3.5s1.57 3.5 3.5 3.5zm3.5-2h2c0 3.414-1.218 4.633-2.293 5.707l-1.414-1.414c.954-.954 1.707-1.707 1.707-4.293z" fill="#ffffff" data-original="#ffffff" style="" class=""/><path d="m13.751 15.337 10.912 10.911 2.151-5.019-8.043-8.043z" fill="#ffffff" data-original="#ffffff" style="" class=""/><path d="m29.186 20.771v.001l.814.814 1.586-1.586-11.586-11.586-1.586 1.586.815.814z" fill="#ffffff" data-original="#ffffff" style="" class=""/><path d="m15.972 43.063-5.5 1.833c-4.682 3.576-7.472 9.209-7.472 15.104v1h12v-9.343c0-1.336.52-2.592 1.464-3.536l.829-.828 1.414 1.414-.829.828c-.566.567-.878 1.32-.878 2.122v9.343h6v-7.456c0-4.58-2.81-8.748-7.028-10.481z" fill="#ffffff" data-original="#ffffff" style="" class=""/><path d="m52 31c-4.962 0-9 4.037-9 9 0 .811.131 1.612.349 2.397 2.27 1.269 4.037 3.321 4.954 5.786 1.173.533 2.413.817 3.697.817 4.962 0 9-4.037 9-9s-4.038-9-9-9zm0 8c1.654 0 3 1.346 3 3 0 1.302-.839 2.402-2 2.816v2.184h-2v-2.184c-1.161-.414-2-1.514-2-2.816h2c0 .552.449 1 1 1s1-.448 1-1-.449-1-1-1c-1.654 0-3-1.346-3-3 0-1.302.839-2.402 2-2.816v-2.184h2v2.184c1.161.414 2 1.514 2 2.816h-2c0-.552-.449-1-1-1s-1 .448-1 1 .449 1 1 1z" fill="#ffffff" data-original="#ffffff" style="" class=""/><path d="m38 43c-4.962 0-9 4.037-9 9s4.038 9 9 9 9-4.037 9-9-4.038-9-9-9zm0 8c1.654 0 3 1.346 3 3 0 1.302-.839 2.402-2 2.816v2.184h-2v-2.184c-1.161-.414-2-1.514-2-2.816h2c0 .552.449 1 1 1s1-.448 1-1-.449-1-1-1c-1.654 0-3-1.346-3-3 0-1.302.839-2.402 2-2.816v-2.184h2v2.184c1.161.414 2 1.514 2 2.816h-2c0-.552-.449-1-1-1s-1 .448-1 1 .449 1 1 1z" fill="#ffffff" data-original="#ffffff" style="" class=""/><path d="m52 21c4.962 0 9-4.037 9-9s-4.038-9-9-9-9 4.037-9 9 4.038 9 9 9zm0-8c-1.654 0-3-1.346-3-3 0-1.302.839-2.402 2-2.816v-2.184h2v2.184c1.161.414 2 1.514 2 2.816h-2c0-.552-.449-1-1-1s-1 .448-1 1 .449 1 1 1c1.654 0 3 1.346 3 3 0 1.302-.839 2.402-2 2.816v2.184h-2v-2.184c-1.161-.414-2-1.514-2-2.816h2c0 .552.449 1 1 1s1-.448 1-1-.449-1-1-1z" fill="#ffffff" data-original="#ffffff" style="" class=""/></g></g></svg>
